<svg fill="none"><defs><svg xmlns="http://www.w3.org/2000/svg" width="1em" height="1em" viewBox="0 0 24 24" fill="none" id="Search"><path opacity="0.3" d="M14.2929 16.7071C13.9024 16.3166 13.9024 15.6834 14.2929 15.2929C14.6834 14.9024 15.3166 14.9024 15.7071 15.2929L19.7071 19.2929C20.0976 19.6834 20.0976 20.3166 19.7071 20.7071C19.3166 21.0976 18.6834 21.0976 18.2929 20.7071L14.2929 16.7071Z" fill="currentColor"/><path fill-rule="evenodd" clip-rule="evenodd" d="M4 11C4 14.866 7.13401 18 11 18C14.866 18 18 14.866 18 11C18 7.13401 14.866 4 11 4C7.13401 4 4 7.13401 4 11ZM16 11C16 13.7614 13.7614 16 11 16C8.23858 16 6 13.7614 6 11C6 8.23858 8.23858 6 11 6C13.7614 6 16 8.23858 16 11Z" fill="currentColor"/></svg>,<svg xmlns="http://www.w3.org/2000/svg" width="1em" height="1em" viewBox="0 0 24 26" fill="none" id="User"><path opacity="0.3" d="M12 11.5072C9.79086 11.5072 8 9.63378 8 7.32277C8 5.01177 9.79086 3.13834 12 3.13834C14.2091 3.13834 16 5.01177 16 7.32277C16 9.63378 14.2091 11.5072 12 11.5072Z" fill="currentColor"/><path d="M3.00065 21.1306C3.38826 16.1378 7.26191 13.5994 11.9833 13.5994C16.7712 13.5994 20.7049 15.9984 20.9979 21.1314C21.0096 21.3359 20.9979 21.9683 20.2467 21.9683C16.5411 21.9683 11.0347 21.9683 3.7275 21.9683C3.47671 21.9683 2.97954 21.4025 3.00065 21.1306Z" fill="currentColor"/></svg>,<svg xmlns="http://www.w3.org/2000/svg" width="1em" height="1em" viewBox="0 0 18 15" fill="none" id="Heart"><path d="M13.5 0C11.8905 0 10.0082 1.82463 9 3C7.99175 1.82463 6.1095 0 4.5 0C1.651 0 0 2.22218 0 5.05041C0 9.75 9 15 9 15C9 15 18 9.75 18 5.25C18 2.42177 16.349 0 13.5 0Z" fill="currentColor"/></svg>,<svg xmlns="http://www.w3.org/2000/svg" width="1em" height="1em" viewBox="0 0 24 24" fill="none" id="Chart"><path d="M5 19H20C20.5523 19 21 19.4477 21 20C21 20.5523 20.5523 21 20 21H4C3.44772 21 3 20.5523 3 20V4C3 3.44772 3.44772 3 4 3C4.55228 3 5 3.44772 5 4V19Z" fill="currentColor"/><path opacity="0.3" d="M8.72954 14.684C8.35181 15.0869 7.71897 15.1073 7.31606 14.7295C6.91315 14.3518 6.89274 13.719 7.27047 13.3161L11.0205 9.31607C11.3858 8.92641 11.9928 8.89261 12.3991 9.23932L15.3589 11.765L19.2151 6.88037C19.5573 6.44689 20.1862 6.37291 20.6196 6.71513C21.0531 7.05735 21.1271 7.68618 20.7849 8.11965L16.2849 13.8197C15.9334 14.2649 15.2824 14.3289 14.8509 13.9607L11.8268 11.3802L8.72954 14.684Z" fill="currentColor"/></svg>,<svg xmlns="http://www.w3.org/2000/svg" width="1em" height="1em" viewBox="0 0 24 24" fill="none" id="Followers"><path opacity="0.3" fill-rule="evenodd" clip-rule="evenodd" d="M5 7C5 9.20914 6.79086 11 9 11C11.2091 11 13 9.20914 13 7C13 4.79086 11.2091 3 9 3C6.79086 3 5 4.79086 5 7ZM15 11C15 12.6569 16.3431 14 18 14C19.6569 14 21 12.6569 21 11C21 9.34315 19.6569 8 18 8C16.3431 8 15 9.34315 15 11Z" fill="currentColor"/><path fill-rule="evenodd" clip-rule="evenodd" d="M8.98334 13C4.26191 13 0.388259 15.4265 0.000651684 20.1992C-0.0204618 20.4592 0.476712 21 0.727502 21H17.2467C17.9979 21 18.0096 20.3955 17.9979 20.2C17.7049 15.2932 13.7712 13 8.98334 13ZM23.4559 21H19.6C19.6 18.7491 18.8563 16.6718 17.6012 15.0006C21.0077 15.0379 23.7892 16.7601 23.9985 20.4C24.0069 20.5466 23.9985 21 23.4559 21Z" fill="currentColor"/></svg>,<svg xmlns="http://www.w3.org/2000/svg" width="1em" height="1em" viewBox="0 0 24 24" fill="none" id="Money"><path opacity="0.3" fill-rule="evenodd" clip-rule="evenodd" d="M3.87657 3.74567C3.3431 3.60272 2.79477 3.91931 2.65183 4.45277L0.0636351 14.112C-0.0793066 14.6455 0.237276 15.1938 0.770742 15.3368L19.1233 20.2543C19.6568 20.3973 20.2051 20.0807 20.3481 19.5472L22.9363 9.88797C23.0792 9.35451 22.7626 8.80617 22.2292 8.66323L3.87657 3.74567ZM15.3637 13.0353C14.7919 15.1691 12.5985 16.4355 10.4647 15.8637C8.33081 15.2919 7.06448 13.0986 7.63625 10.9647C8.20802 8.83086 10.4014 7.56453 12.5352 8.1363C14.6691 8.70807 15.9354 10.9014 15.3637 13.0353Z" fill="currentColor"/><path fill-rule="evenodd" clip-rule="evenodd" d="M2 6C1.44772 6 1 6.44772 1 7V17C1 17.5523 1.44772 18 2 18H21C21.5523 18 22 17.5523 22 17V7C22 6.44772 21.5523 6 21 6H2ZM15.5 12C15.5 14.2091 13.7091 16 11.5 16C9.29086 16 7.5 14.2091 7.5 12C7.5 9.79086 9.29086 8 11.5 8C13.7091 8 15.5 9.79086 15.5 12ZM11.5 14C12.6046 14 13.5 13.1046 13.5 12C13.5 10.8954 12.6046 10 11.5 10C10.3954 10 9.5 10.8954 9.5 12C9.5 13.1046 10.3954 14 11.5 14Z" fill="currentColor"/></svg>,<svg xmlns="http://www.w3.org/2000/svg" width="1em" height="1em" viewBox="0 0 24 24" fill="none" id="Wallet"><rect opacity="0.3" x="2" y="2" width="1em" height="1em" rx="2" fill="currentColor"/><path fill-rule="evenodd" clip-rule="evenodd" d="M4 6C2.89543 6 2 6.89543 2 8V20C2 21.1046 2.89543 22 4 22H20C21.1046 22 22 21.1046 22 20V8C22 6.89543 21.1046 6 20 6H4ZM20 14C20 15.1046 19.1046 16 18 16C16.8954 16 16 15.1046 16 14C16 12.8954 16.8954 12 18 12C19.1046 12 20 12.8954 20 14Z" fill="currentColor"/></svg>,<svg xmlns="http://www.w3.org/2000/svg" width="1em" height="1em" viewBox="0 0 23 24" fill="none" id="Calendar"><path d="M0 21.75C0 22.9922 1.00781 24 2.25 24H18.75C19.9922 24 21 22.9922 21 21.75V9H0V21.75ZM15 12.5625C15 12.2531 15.2531 12 15.5625 12H17.4375C17.7469 12 18 12.2531 18 12.5625V14.4375C18 14.7469 17.7469 15 17.4375 15H15.5625C15.2531 15 15 14.7469 15 14.4375V12.5625ZM15 18.5625C15 18.2531 15.2531 18 15.5625 18H17.4375C17.7469 18 18 18.2531 18 18.5625V20.4375C18 20.7469 17.7469 21 17.4375 21H15.5625C15.2531 21 15 20.7469 15 20.4375V18.5625ZM9 12.5625C9 12.2531 9.25313 12 9.5625 12H11.4375C11.7469 12 12 12.2531 12 12.5625V14.4375C12 14.7469 11.7469 15 11.4375 15H9.5625C9.25313 15 9 14.7469 9 14.4375V12.5625ZM9 18.5625C9 18.2531 9.25313 18 9.5625 18H11.4375C11.7469 18 12 18.2531 12 18.5625V20.4375C12 20.7469 11.7469 21 11.4375 21H9.5625C9.25313 21 9 20.7469 9 20.4375V18.5625ZM3 12.5625C3 12.2531 3.25313 12 3.5625 12H5.4375C5.74687 12 6 12.2531 6 12.5625V14.4375C6 14.7469 5.74687 15 5.4375 15H3.5625C3.25313 15 3 14.7469 3 14.4375V12.5625ZM3 18.5625C3 18.2531 3.25313 18 3.5625 18H5.4375C5.74687 18 6 18.2531 6 18.5625V20.4375C6 20.7469 5.74687 21 5.4375 21H3.5625C3.25313 21 3 20.7469 3 20.4375V18.5625ZM18.75 3H16.5V0.75C16.5 0.3375 16.1625 0 15.75 0H14.25C13.8375 0 13.5 0.3375 13.5 0.75V3H7.5V0.75C7.5 0.3375 7.1625 0 6.75 0H5.25C4.8375 0 4.5 0.3375 4.5 0.75V3H2.25C1.00781 3 0 4.00781 0 5.25V7.5H21V5.25C21 4.00781 19.9922 3 18.75 3Z" fill="currentColor"/></svg>,<svg xmlns="http://www.w3.org/2000/svg" width="1em" height="1em" viewBox="0 0 8 8" fill="none" id="Sorting/up-arrow.svg"><path d="M1.00003 6.33334H7.00003C7.06078 6.33315 7.12032 6.31639 7.17225 6.28488C7.22419 6.25336 7.26654 6.20828 7.29476 6.15449C7.32298 6.10069 7.33599 6.04022 7.3324 5.97958C7.3288 5.91894 7.30874 5.86042 7.27436 5.81034L4.27436 1.477C4.15003 1.29734 3.8507 1.29734 3.72603 1.477L0.726028 5.81034C0.691303 5.86032 0.67094 5.91886 0.66715 5.9796C0.663361 6.04034 0.67629 6.10096 0.704533 6.15487C0.732776 6.20878 0.775254 6.25392 0.82735 6.28539C0.879446 6.31685 0.939168 6.33343 1.00003 6.33334Z" fill="currentColor"/></svg>,<svg xmlns="http://www.w3.org/2000/svg" width="1em" height="1em" viewBox="0 0 8 8" fill="none" id="Sorting/down-arrow.svg"><g clip-path="url(#clip0_1020_5489)"><path d="M6.99997 1.66666L0.999971 1.66666C0.939224 1.66685 0.879679 1.68361 0.827745 1.71512C0.775812 1.74664 0.733457 1.79172 0.705239 1.84551C0.677021 1.89931 0.664009 1.95978 0.667603 2.02042C0.671198 2.08107 0.691262 2.13958 0.725637 2.18966L3.72564 6.523C3.84997 6.70266 4.1493 6.70266 4.27397 6.523L7.27397 2.18966C7.3087 2.13968 7.32906 2.08114 7.33285 2.0204C7.33664 1.95966 7.32371 1.89904 7.29547 1.84513C7.26722 1.79122 7.22475 1.74608 7.17265 1.71461C7.12055 1.68315 7.06083 1.66657 6.99997 1.66666Z" fill="currentColor"/></g><defs><clipPath id="clip0_1020_5489"><rect width="1em" height="1em" fill="white" transform="translate(8 8) rotate(180)"/></clipPath></defs></svg>,<svg xmlns="http://www.w3.org/2000/svg" width="1em" height="1em" viewBox="0 0 15 15" fill="none" id="Sun"><path d="M3.74625 7.5C3.74625 9.57075 5.43075 11.2552 7.5015 11.2552C9.57225 11.2552 11.2567 9.57075 11.2567 7.5C11.2567 5.42925 9.57225 3.74475 7.5015 3.74475C5.43075 3.74475 3.74625 5.42925 3.74625 7.5ZM6.75 12.75H8.25V15H6.75V12.75ZM6.75 0H8.25V2.25H6.75V0ZM0 6.75H2.25V8.25H0V6.75ZM12.75 6.75H15V8.25H12.75V6.75ZM2.72775 13.3335L1.66725 12.273L3.258 10.6822L4.3185 11.7427L2.72775 13.3335ZM10.6815 3.258L12.273 1.6665L13.3335 2.727L11.742 4.3185L10.6815 3.258ZM3.258 4.31925L1.66725 2.72775L2.7285 1.66725L4.3185 3.25875L3.258 4.31925ZM13.3335 12.273L12.273 13.3335L10.6815 11.742L11.742 10.6815L13.3335 12.273Z" fill="currentColor"/></svg>,<svg xmlns="http://www.w3.org/2000/svg" width="1em" height="1em" viewBox="0 0 15 15" fill="none" id="Moon"><path d="M7.49981 7.35525C6.55614 6.41121 5.91348 5.20863 5.65304 3.89947C5.39259 2.59031 5.52606 1.23333 6.03656 0C4.58101 0.286538 3.24401 1.00074 2.19656 2.05125C-0.732187 4.98 -0.732187 9.729 2.19656 12.6578C5.12606 15.5873 9.87431 15.5865 12.8038 12.6578C13.854 11.6104 14.5682 10.2737 14.8551 8.8185C13.6217 9.32891 12.2648 9.46232 10.9556 9.20188C9.64648 8.94144 8.44391 8.29884 7.49981 7.35525V7.35525Z" fill="currentColor"/></svg>,<svg xmlns="http://www.w3.org/2000/svg" width="1em" height="1em" viewBox="0 0 17 14" fill="none" id="Twitter"><path d="M15.2526 3.48905C15.2634 3.64217 15.2634 3.79532 15.2634 3.94844C15.2634 8.61873 11.7577 14 5.35027 14C3.37627 14 1.54252 13.4203 0 12.4141C0.280468 12.4469 0.550112 12.4578 0.84137 12.4578C2.47016 12.4578 3.96955 11.9 5.16689 10.9485C3.63516 10.9156 2.35152 9.89845 1.90925 8.49844C2.12501 8.53123 2.34073 8.55311 2.56728 8.55311C2.88008 8.55311 3.19292 8.50934 3.48415 8.43282C1.8877 8.10467 0.690329 6.68281 0.690329 4.96562V4.92189C1.15415 5.18439 1.69353 5.34845 2.26519 5.3703C1.32674 4.73591 0.711911 3.65311 0.711911 2.4281C0.711911 1.77186 0.884468 1.1703 1.18652 0.645296C2.90163 2.78904 5.4797 4.18902 8.37054 4.34217C8.31662 4.07967 8.28425 3.80626 8.28425 3.53282C8.28425 1.58592 9.83756 0 11.7684 0C12.7716 0 13.6776 0.426561 14.3141 1.11562C15.1015 0.962507 15.8566 0.66718 16.5254 0.262502C16.2665 1.08283 15.7164 1.7719 14.9937 2.20937C15.6948 2.13284 16.3744 1.93592 17 1.66251C16.5255 2.36248 15.9322 2.9859 15.2526 3.48905V3.48905Z" fill="currentColor"/></svg>,<svg xmlns="http://www.w3.org/2000/svg" width="1em" height="1em" viewBox="0 0 17 17" fill="none" id="StarStroke"><path d="M8.59428 13.2981L8.3616 13.1758L8.12893 13.2981L4.04455 15.4454C3.80013 15.5739 3.49782 15.4799 3.36932 15.2355C3.31815 15.1382 3.30049 15.0267 3.31908 14.9183L4.09913 10.3703L4.14356 10.1112L3.95533 9.92771L0.650995 6.70678C0.453253 6.51403 0.449207 6.19748 0.641957 5.99974C0.718712 5.92099 0.819283 5.86975 0.928101 5.85394L5.49458 5.19039L5.75471 5.15259L5.87105 4.91687L7.91324 0.77894C8.03545 0.531313 8.33526 0.429644 8.58289 0.551855C8.68149 0.60052 8.76131 0.680334 8.80997 0.77894L10.8522 4.91687L10.9685 5.15259L11.2286 5.19039L15.7951 5.85394C16.0684 5.89365 16.2577 6.14737 16.218 6.42064C16.2022 6.52946 16.151 6.63003 16.0722 6.70678L12.7679 9.92771L12.5796 10.1112L12.6241 10.3703L13.4041 14.9183C13.4508 15.1905 13.268 15.4489 12.9958 15.4956C12.8875 15.5142 12.776 15.4966 12.6787 15.4454L8.59428 13.2981Z" stroke="currentColor"/></svg>,<svg xmlns="http://www.w3.org/2000/svg" width="1em" height="1em" viewBox="0 0 12 10" fill="none" id="Arrow"><path d="M2.64929 10C1.48334 10 0.763174 8.72804 1.36305 7.72826L4.71376 2.14373C5.29636 1.17273 6.70363 1.17272 7.28624 2.14373L10.637 7.72825C11.2368 8.72804 10.5167 10 9.35071 10H2.64929Z" fill="currentColor"/></svg>,<svg xmlns="http://www.w3.org/2000/svg" width="1em" height="1em" viewBox="0 0 7 7" fill="none" id="Info"><path fill-rule="evenodd" clip-rule="evenodd" d="M3.5 1C2.11929 1 1 2.11929 1 3.5C1 4.88071 2.11929 6 3.5 6C4.88071 6 6 4.88071 6 3.5C6 2.11929 4.88071 1 3.5 1ZM0 3.5C0 1.567 1.567 0 3.5 0C5.433 0 7 1.567 7 3.5C7 5.433 5.433 7 3.5 7C1.567 7 0 5.433 0 3.5ZM3 2.16667C3 1.89052 3.22386 1.66667 3.5 1.66667H3.50333C3.77948 1.66667 4.00333 1.89052 4.00333 2.16667C4.00333 2.44281 3.77948 2.66667 3.50333 2.66667H3.5C3.22386 2.66667 3 2.44281 3 2.16667ZM2.66667 3.5C2.66667 3.22386 2.89052 3 3.16667 3H3.5C3.77614 3 4 3.22386 4 3.5V4.36178C4.1942 4.43042 4.33333 4.61563 4.33333 4.83333C4.33333 5.10948 4.10948 5.33333 3.83333 5.33333H3.5C3.22386 5.33333 3 5.10948 3 4.83333V3.97155C2.8058 3.90291 2.66667 3.7177 2.66667 3.5Z" fill="currentColor"/></svg>,<svg xmlns="http://www.w3.org/2000/svg" width="1em" height="1em" viewBox="0 0 10 15" fill="none" id="Fire"><path fill-rule="evenodd" clip-rule="evenodd" d="M6.66667 2.91667C6.66667 2.91667 6.25 7.08333 4.16667 7.37527C4.16667 7.37527 5.41667 2.5 3.75 0C3.75 0 3.57326 2.67871 1.78749 5.8931C0.950409 7.39985 0 8.41557 0 10.4167C0 13.2739 2.9262 14.7505 5.00477 14.7505C7.08333 14.7505 10 13.7505 10 10.2504C10 8.09155 6.66667 2.91667 6.66667 2.91667Z" fill="currentColor"/></svg>,<svg xmlns="http://www.w3.org/2000/svg" width="1em" height="1em" viewBox="0 0 15 14" fill="none" id="Gas"><path d="M13.212 2.61L13.2225 2.59725L10.2225 0.16725L9.2775 1.33275L10.8278 2.58825C10.4432 2.82194 10.1378 3.16594 9.95136 3.5755C9.7649 3.98506 9.70598 4.44125 9.78225 4.88475C9.89475 5.559 10.359 6.14175 10.9598 6.468C11.631 6.83325 12.2198 6.7995 12.7433 6.6135L12.732 11.25C12.7329 11.3742 12.7028 11.4966 12.6445 11.6063C12.5862 11.7159 12.5014 11.8093 12.3979 11.8779C12.2944 11.9466 12.1755 11.9884 12.0518 11.9995C11.9281 12.0106 11.8036 11.9906 11.6895 11.9415C11.6002 11.9033 11.5191 11.848 11.451 11.7787C11.3817 11.7093 11.3267 11.6268 11.2893 11.5361C11.2518 11.4454 11.2326 11.3482 11.2328 11.25L11.25 9.75C11.2508 9.45479 11.193 9.16235 11.0801 8.88957C10.9672 8.61679 10.8014 8.36908 10.5923 8.16075C10.3833 7.95135 10.1351 7.78521 9.86192 7.67183C9.5887 7.55845 9.29581 7.50006 9 7.5H8.25V1.5C8.25 1.10218 8.09197 0.720644 7.81066 0.43934C7.52936 0.158035 7.14783 0 6.75 0H1.5C1.10218 0 0.720644 0.158035 0.43934 0.43934C0.158035 0.720644 0 1.10218 0 1.5V12C0 12.3978 0.158035 12.7794 0.43934 13.0607C0.720644 13.342 1.10218 13.5 1.5 13.5H6.75C7.14783 13.5 7.52936 13.342 7.81066 13.0607C8.09197 12.7794 8.25 12.3978 8.25 12V9H9C9.102 9 9.20025 9.02025 9.29325 9.0585C9.47174 9.13664 9.61403 9.27946 9.6915 9.45825C9.73041 9.55058 9.7503 9.64981 9.75 9.75L9.732 11.25C9.732 11.5545 9.79125 11.8492 9.909 12.126C10.0223 12.3952 10.185 12.636 10.3898 12.8392C10.5979 13.0497 10.846 13.2165 11.1194 13.3299C11.3928 13.4434 11.686 13.5012 11.982 13.5C12.2865 13.5 12.5805 13.4415 12.858 13.323C13.1265 13.2105 13.368 13.0477 13.5713 12.8422C13.7812 12.6337 13.9477 12.3856 14.0611 12.1123C14.1746 11.839 14.2326 11.5459 14.232 11.25L14.25 4.5C14.2493 4.12321 14.1538 3.75266 13.9724 3.42241C13.7911 3.09215 13.5296 2.81279 13.212 2.61V2.61ZM6.75 3.75H1.5V1.5H6.75V3.75ZM12 5.25C11.8011 5.25 11.6103 5.17098 11.4697 5.03033C11.329 4.88968 11.25 4.69891 11.25 4.5C11.25 4.30109 11.329 4.11032 11.4697 3.96967C11.6103 3.82902 11.8011 3.75 12 3.75C12.1989 3.75 12.3897 3.82902 12.5303 3.96967C12.671 4.11032 12.75 4.30109 12.75 4.5C12.75 4.69891 12.671 4.88968 12.5303 5.03033C12.3897 5.17098 12.1989 5.25 12 5.25Z" fill="currentColor"/></svg>,<svg xmlns="http://www.w3.org/2000/svg" width="1em" height="1em" viewBox="0 0 25 22" fill="none" id="Lightning"><path fill-rule="evenodd" clip-rule="evenodd" d="M12 18.3498C12 19.0999 12.9794 19.3854 13.3825 18.7528L19.2652 9.52195C19.5833 9.02268 19.2247 8.36888 18.6327 8.36888H14V2.57241C14 1.82233 13.0206 1.53679 12.6175 2.16934L6.73483 11.4002C6.41665 11.8995 6.77528 12.5533 7.36731 12.5533H12V18.3498Z" fill="currentColor"/></svg>,<svg xmlns="http://www.w3.org/2000/svg" width="1em" height="1em" viewBox="0 0 17 17" fill="none" id="StarFill"><path fill-rule="evenodd" clip-rule="evenodd" d="M8.3616 13.7407L4.27722 15.888C3.78838 16.145 3.18375 15.957 2.92675 15.4682C2.82441 15.2735 2.7891 15.0505 2.82627 14.8338L3.60632 10.2858L0.301989 7.06483C-0.0934948 6.67933 -0.101587 6.04621 0.283914 5.65073C0.437423 5.49325 0.638565 5.39076 0.856202 5.35913L5.42268 4.69559L7.46487 0.557657C7.70929 0.0624036 8.30892 -0.140935 8.80417 0.103487C9.00138 0.200817 9.16101 0.360445 9.25834 0.557657L11.3005 4.69559L15.867 5.35913C16.4136 5.43855 16.7922 5.946 16.7128 6.49254C16.6812 6.71018 16.5787 6.91132 16.4212 7.06483L13.1169 10.2858L13.8969 14.8338C13.9903 15.3781 13.6247 15.8951 13.0804 15.9884C12.8636 16.0256 12.6406 15.9903 12.446 15.888L8.3616 13.7407Z" fill="currentColor"/></svg>,<svg xmlns="http://www.w3.org/2000/svg" width="1em" height="1em" viewBox="0 0 14 14" fill="none" id="TwitterSmall"><path d="M12.5 0H1.5C0.671875 0 0 0.671875 0 1.5V12.5C0 13.3281 0.671875 14 1.5 14H12.5C13.3281 14 14 13.3281 14 12.5V1.5C14 0.671875 13.3281 0 12.5 0ZM10.9719 4.9625C10.9781 5.05 10.9781 5.14063 10.9781 5.22813C10.9781 7.9375 8.91562 11.0594 5.14687 11.0594C3.98437 11.0594 2.90625 10.7219 2 10.1406C2.16563 10.1594 2.325 10.1656 2.49375 10.1656C3.45313 10.1656 4.33437 9.84062 5.0375 9.29062C4.1375 9.27187 3.38125 8.68125 3.12188 7.86875C3.4375 7.91562 3.72188 7.91563 4.04688 7.83125C3.10938 7.64063 2.40625 6.81562 2.40625 5.81875V5.79375C2.67812 5.94687 2.99687 6.04062 3.33125 6.05312C3.05013 5.86614 2.81968 5.61246 2.66046 5.31474C2.50124 5.01701 2.4182 4.6845 2.41875 4.34688C2.41875 3.96563 2.51875 3.61562 2.69688 3.3125C3.70625 4.55625 5.22187 5.36875 6.92188 5.45625C6.63125 4.06563 7.67188 2.9375 8.92188 2.9375C9.5125 2.9375 10.0437 3.18437 10.4187 3.58437C10.8812 3.49687 11.325 3.325 11.7188 3.09062C11.5656 3.56562 11.2438 3.96562 10.8188 4.21875C11.2313 4.175 11.6312 4.05938 12 3.9C11.7219 4.30938 11.3719 4.67188 10.9719 4.9625Z" fill="currentColor"/></svg>,<svg xmlns="http://www.w3.org/2000/svg" width="1em" height="1em" viewBox="0 0 16 16" fill="none" id="Telegram"><path d="M7.75 0C3.46875 0 0 3.46875 0 7.75C0 12.0312 3.46875 15.5 7.75 15.5C12.0312 15.5 15.5 12.0312 15.5 7.75C15.5 3.46875 12.0312 0 7.75 0ZM11.5562 5.30937L10.2844 11.3031C10.1906 11.7281 9.9375 11.8313 9.58438 11.6313L7.64687 10.2031L6.7125 11.1031C6.60938 11.2062 6.52188 11.2937 6.32188 11.2937L6.45937 9.32187L10.05 6.07812C10.2063 5.94062 10.0156 5.8625 9.80937 6L5.37187 8.79375L3.45937 8.19687C3.04375 8.06562 3.03438 7.78125 3.54688 7.58125L11.0188 4.7C11.3656 4.575 11.6687 4.78437 11.5562 5.30937V5.30937Z" fill="currentColor"/></svg>,<svg xmlns="http://www.w3.org/2000/svg" width="1em" height="1em" viewBox="0 0 16 16" fill="none" id="Angle"><path d="M11.5284 5.5286C11.7888 5.26825 12.2109 5.26825 12.4712 5.5286C12.7316 5.78894 12.7316 6.21105 12.4712 6.4714L8.47124 10.4714C8.21886 10.7238 7.81246 10.7326 7.54935 10.4914L3.54935 6.82477C3.27794 6.57597 3.25961 6.15426 3.5084 5.88285C3.7572 5.61144 4.17891 5.5931 4.45032 5.8419L7.97979 9.07724L11.5284 5.5286Z" fill="currentColor"/></svg>,<svg xmlns="http://www.w3.org/2000/svg" width="1em" height="1em" viewBox="0 0 12 12" fill="none" id="Filter"><path fill-rule="evenodd" clip-rule="evenodd" d="M3.26616 1.625C2.06409 1.625 1.43 3.03499 2.23415 3.91983L4.23804 6.12483C4.50922 6.42322 4.65927 6.81046 4.65927 7.2119V9.125C4.65927 9.81536 5.22438 10.375 5.92148 10.375C6.61858 10.375 7.18369 9.81536 7.18369 9.125V7.24678C7.18369 6.82838 7.34665 6.4261 7.63864 6.12371L9.73728 3.95029C10.5819 3.07561 9.95585 1.625 8.7338 1.625H3.26616Z" fill="currentColor"/></svg></defs></svg>